<svg version="1.1" id="Layer_1" xmlns="http://www.w3.org/2000/svg" x="0" y="0" viewBox="0 0 80 80" xml:space="preserve"><path d="M62 26.1c-1.3 1.9-2.8 3.4-4.6 4.8v1.2c0 2.5-.4 4.9-1.1 7.4-.7 2.5-1.8 4.8-3.3 7.1s-3.2 4.3-5.3 6c-2 1.7-4.5 3.1-7.4 4.2-2.9 1-5.9 1.6-9.2 1.6-5.1 0-9.8-1.4-14.1-4.1.8.1 1.5.1 2.2.1 4.3 0 8.1-1.3 11.4-3.9-2 0-3.8-.6-5.4-1.8s-2.7-2.7-3.3-4.6c.6.1 1.2.2 1.7.2.8 0 1.6-.1 2.4-.3-2.1-.4-3.9-1.5-5.3-3.2s-2.1-3.6-2.1-5.9v-.1c1.3.7 2.7 1.1 4.2 1.2-1.3-.8-2.3-1.9-3-3.3-.7-1.4-1.1-2.8-1.1-4.4 0-1.7.4-3.2 1.2-4.6 2.3 2.8 5.1 5.1 8.4 6.8 3.3 1.7 6.8 2.6 10.6 2.8-.2-.7-.2-1.4-.2-2.1 0-2.5.9-4.7 2.7-6.5 1.8-1.8 4-2.7 6.5-2.7 2.7 0 4.9 1 6.7 2.9 2.1-.4 4-1.2 5.9-2.2-.7 2.2-2 3.9-4 5.1 2-.5 3.8-1 5.5-1.7z" fill="#fff"/></svg>