<svg version="1.1" id="Layer_1" xmlns="http://www.w3.org/2000/svg" x="0" y="0" viewBox="0 0 80 80" xml:space="preserve"><path d="M50.8 30.9c-2.3 0-4.4.8-6 2.3l-6.9-4c.1-.6.2-1.2.2-1.9 0-4.9-4-8.9-8.9-8.9s-8.9 4-8.9 8.9 4 8.9 8.9 8.9c2.3 0 4.4-.8 6-2.3l6.9 4c-.1.6-.2 1.2-.2 1.9 0 .8 0 1.4.2 2.1l-7 4.2c-1.6-1.4-3.6-2.3-5.9-2.3-4.9 0-8.9 4-8.9 8.9s4 8.9 8.9 8.9 8.9-4 8.9-8.9c0-.8 0-1.4-.2-2.1l7-4.2c1.6 1.4 3.6 2.3 5.9 2.3 4.9 0 8.9-4 8.9-8.9s-4-8.9-8.9-8.9zm-21.6.1c-2 0-3.6-1.6-3.6-3.6s1.6-3.6 3.6-3.6 3.6 1.6 3.6 3.6-1.6 3.6-3.6 3.6zm0 25.3c-2 0-3.6-1.6-3.6-3.6s1.6-3.6 3.6-3.6 3.6 1.6 3.6 3.6-1.6 3.6-3.6 3.6zm21.6-12.9c-2 0-3.6-1.6-3.6-3.6s1.6-3.6 3.6-3.6c1.9 0 3.6 1.6 3.6 3.6s-1.6 3.6-3.6 3.6z" fill="#ffd124" id="XMLID_10_"/></svg>