<svg version="1.1" id="Layer_1" xmlns="http://www.w3.org/2000/svg" x="0" y="0" viewBox="0 0 80 80" xml:space="preserve"><path d="M41 19.2c4.4 0 8 1.3 10.8 4s4.2 5.9 4.2 9.6c0 4.7-1.2 8.7-3.6 11.7-2.4 3.1-5.5 4.6-9.2 4.6-1.2 0-2.4-.3-3.5-.9-1.1-.6-1.9-1.3-2.3-2.1-.9 3.7-1.5 5.9-1.7 6.5-.7 2.5-2.1 5.1-4.3 7.8-.3.3-.4.2-.5-.1-.5-3.6-.5-6.7.1-9.1l3-13c-.5-1-.8-2.2-.8-3.7 0-1.8.4-3.2 1.3-4.4.9-1.2 2-1.8 3.3-1.8 1 0 1.8.3 2.4 1 .5.9.8 1.7.8 2.7 0 .6-.1 1.4-.4 2.3-.2.9-.5 2-.9 3.2-.4 1.2-.7 2.2-.8 2.9-.3 1.2-.1 2.3.7 3.2.8.9 1.8 1.4 3.1 1.4 2.2 0 4-1.2 5.4-3.7 1.4-2.5 2.1-5.5 2.1-9 0-2.7-.9-4.9-2.6-6.6-1.7-1.7-4.2-2.5-7.3-2.5-3.5 0-6.3 1.1-8.5 3.4-2.2 2.2-3.2 4.9-3.2 8.1 0 1.8.5 3.4 1.6 4.7.3.4.4.9.3 1.3 0 .1-.1.3-.2.7-.1.4-.1.6-.2.8 0 .1-.1.4-.3.7-.1.3-.3.4-.4.4h-.6c-3.3-1.3-4.9-4.3-4.9-9.1 0-3.8 1.5-7.2 4.6-10.3s7.2-4.7 12.5-4.7z" fill="#fff"/></svg>