<svg version="1.1" id="Layer_1" xmlns="http://www.w3.org/2000/svg" x="0" y="0" viewBox="-1075 340.3 354 253.7" xml:space="preserve"><path d="M-790.2 562c2.2 4.1 6.6 6.9 11.7 6.9 7.3 0 13.2-5.9 13.2-13.2 0-2.3-.6-4.5-1.6-6.3v.1l-112-190.4c-3.5-6-1.5-13.6 4.4-17.1 6-3.5 13.6-1.5 17.1 4.4l134.7 228.7c2.3 3.9 2.3 8.6.1 12.5-2.2 3.9-6.4 6.3-10.9 6.3h-329c-4.5 0-8.6-2.4-10.8-6.3-2.2-3.9-2.2-8.7.1-12.5l24.2-41.1c4.3 2.3 9.1 3.8 14.1 4.1.8.1 1.7.1 2.5.1 12.4 0 23.7-6.4 30-17.2 1.6-2.7 2.9-5.8 3.7-8.9 1.1.2 2.2.3 3.2.4.8.1 1.7.1 2.5.1 12.4 0 23.7-6.4 30-17.2 2.7-4.6 4.3-9.9 4.7-15.2.6-8.8-2.1-17.3-7.5-24.1 2.3-2.2 4.3-4.8 6-7.6 2.7-4.6 4.4-9.9 4.7-15.2.7-9.3-2.3-18.2-8.4-25.3-2.2-2.6-4.8-4.8-7.6-6.6l32-54.1c0-.1.1-.1.1-.2 1.9-3.8 5.7-6.4 9.9-6.8 4.7-.4 9.2 1.8 11.8 5.7.2.3.4.7.6 1l127.1 215.7" fill="#30d4ff"/></svg>