<svg version="1.1" id="Layer_1" xmlns="http://www.w3.org/2000/svg" x="0" y="0" viewBox="318 -80.1 1231 1000" xml:space="preserve"><path d="M1549.1 38.3c-34.3 51-76.3 94.5-126.2 130.4.5 9.6.7 20.5.7 32.7 0 67.5-9.8 135.1-29.5 202.8-19.7 67.7-49.8 132.5-90.2 194.3-40.5 61.9-88.6 116.7-144.6 164.5s-123.2 85.8-201.7 114.2-162.7 42.6-252.5 42.6C565 919.9 436 882.1 318 806.4c20.9 2.3 41 3.5 60.2 3.5 117.1 0 221.6-36.1 313.7-108.2-54.6-1-103.5-17.8-146.7-50.4-43.2-32.6-72.9-74.3-89.2-125 16.1 3.1 31.9 4.6 47.6 4.6 22.5 0 44.7-2.9 66.5-8.8-58.3-11.7-106.6-40.7-145-87-38.4-46.4-57.6-99.9-57.6-160.5v-3.1c35.8 19.8 73.9 30.3 114.4 31.6-34.5-23-61.9-53-82.1-90-20.2-37-30.3-77-30.3-120.1 0-45.4 11.4-87.7 34.2-126.9C467.1 43.7 543.9 105.9 634 152.4c90.2 46.5 186.9 72.4 290.2 77.5-4.4-18.4-6.6-37.5-6.6-57.5 0-69.7 24.7-129.2 74-178.5 49.3-49.3 108.8-74 178.5-74 73 0 134.4 26.6 184.4 79.7 57.1-11.3 110.5-31.8 160.3-61.3C1495.7-1.4 1458.7 45.2 1404 78c50.3-6 98.7-19.2 145.1-39.7z" fill="#b5b5b5"/></svg>