<svg version="1.1" id="Layer_1" xmlns="http://www.w3.org/2000/svg" x="0" y="0" viewBox="131 -8.6 857.1 857.1" xml:space="preserve"><path d="M891 715.7V354.1h-75.3c7.4 23.4 11.2 47.8 11.2 73.1 0 46.9-11.9 90.1-35.7 129.7-23.8 39.6-56.2 71-97.1 94s-85.6 34.6-133.9 34.6c-73.3 0-136-25.2-188-75.6s-78.1-111.3-78.1-182.7c0-25.3 3.7-49.7 11.2-73.1h-78.7v361.6c0 9.7 3.3 17.8 9.8 24.3 6.5 6.5 14.6 9.8 24.3 9.8H857c9.3 0 17.3-3.3 24-9.8s10-14.7 10-24.3zM732.5 418.2c0-46.1-16.8-85.5-50.5-118s-74.3-48.8-121.9-48.8c-47.2 0-87.7 16.3-121.4 48.8s-50.5 71.9-50.5 118c0 46.1 16.8 85.5 50.5 118S512.8 585 560.1 585c47.6 0 88.3-16.3 121.9-48.8 33.7-32.5 50.5-71.8 50.5-118zM891 217.4v-92.1c0-10.4-3.7-19.4-11.2-27.1-7.4-7.6-16.6-11.4-27.3-11.4h-97.1c-10.8 0-19.9 3.8-27.3 11.4-7.4 7.6-11.2 16.6-11.2 27.1v92.1c0 10.8 3.7 19.9 11.2 27.3s16.6 11.2 27.3 11.2h97.1c10.8 0 19.9-3.7 27.3-11.2 7.5-7.4 11.2-16.5 11.2-27.3zm97.1-116.1v637.2c0 30.1-10.8 56-32.4 77.6-21.6 21.6-47.4 32.4-77.6 32.4H240.9c-30.1 0-56-10.8-77.6-32.4-21.6-21.6-32.4-47.4-32.4-77.6V101.3c0-30.1 10.8-56 32.4-77.6s47.4-32.4 77.6-32.4h637.2c30.1 0 56 10.8 77.6 32.4 21.6 21.6 32.4 47.5 32.4 77.6z" fill="#b5b5b5"/></svg>