<svg version="1.1" id="Layer_1" xmlns="http://www.w3.org/2000/svg" x="0" y="0" viewBox="0 0 80 80" xml:space="preserve"><path d="M56.5 24.8h-8.1v-5c0-1.1-.9-2-2-2H33.1c-1.1 0-2 .9-2 2v5h-7.7c-3.1 0-5.5 2.5-5.5 5.5v26.4c0 3.1 2.5 5.5 5.5 5.5h33.1c3.1 0 5.5-2.5 5.5-5.5V30.3c.1-3-2.4-5.5-5.5-5.5zm-21.4-2.9h9.4V25H42v2.6h-4V25h-2.9v-3.1zm-4.4 19.8c-1.8 0-3.3-1.5-3.3-3.3s1.5-3.3 3.3-3.3c1.8 0 3.3 1.5 3.3 3.3s-1.5 3.3-3.3 3.3zm9.3 5.4c-2.7 0-4.9-2.2-4.9-4.9h9.8c0 2.7-2.2 4.9-4.9 4.9zm9.3-5.4c-1.8 0-3.3-1.5-3.3-3.3s1.5-3.3 3.3-3.3 3.3 1.5 3.3 3.3-1.4 3.3-3.3 3.3z" fill="#fff" id="XMLID_8_"/></svg>