<svg version="1.1" id="Layer_1" xmlns="http://www.w3.org/2000/svg" x="0" y="0" viewBox="920 500 80 80" xml:space="preserve"><path fill="#FFF" d="M976.5 524.8h-8.1v-5c0-1.1-.9-2-2-2h-13.3c-1.1 0-2 .9-2 2v5h-7.7c-3.1 0-5.5 2.5-5.5 5.5v26.4c0 3.1 2.5 5.5 5.5 5.5h33.1c3.1 0 5.5-2.5 5.5-5.5v-26.4c.1-3-2.4-5.5-5.5-5.5zm-21.3-2.9h9.4v3.1H962v2.6h-4V525h-2.9v-3.1zm-4.4 19.8c-1.8 0-3.3-1.5-3.3-3.3s1.5-3.3 3.3-3.3 3.3 1.5 3.3 3.3-1.5 3.3-3.3 3.3zm9.2 5.4c-2.7 0-4.9-2.2-4.9-4.9h9.8c0 2.7-2.2 4.9-4.9 4.9zm9.3-5.4c-1.8 0-3.3-1.5-3.3-3.3s1.5-3.3 3.3-3.3 3.3 1.5 3.3 3.3-1.4 3.3-3.3 3.3z" id="XMLID_8_"/></svg>