<svg xmlns="http://www.w3.org/2000/svg" viewBox="0 0 1001.45 315.76"><defs><style>.cls-1{fill:#fff;}</style></defs><title>banner-bg__stars</title><g id="Layer_2" data-name="Layer 2"><g id="Layer_2-2" data-name="Layer 2"><circle class="cls-1" cx="202.67" cy="17.34" r="1.14"/><circle class="cls-1" cx="137.15" cy="117.71" r="0.76"/><circle class="cls-1" cx="120.1" cy="51.43" r="0.38"/><circle class="cls-1" cx="214.33" cy="268.09" r="1.14"/><circle class="cls-1" cx="161.35" cy="160.57" r="0.76"/><circle class="cls-1" cx="227.06" cy="179.68" r="0.38"/><circle class="cls-1" cx="706.55" cy="1.14" r="1.14"/><circle class="cls-1" cx="641.03" cy="101.5" r="0.76"/><circle class="cls-1" cx="623.99" cy="35.22" r="0.38"/><circle class="cls-1" cx="292.1" cy="315" r="0.76"/><circle class="cls-1" cx="352.42" cy="282.68" r="0.38"/><circle class="cls-1" cx="527.21" cy="269.88" r="1.14"/><circle class="cls-1" cx="474.23" cy="162.37" r="0.76"/><circle class="cls-1" cx="539.94" cy="181.47" r="0.38"/><circle class="cls-1" cx="374.23" cy="32.37" r="0.76"/><circle class="cls-1" cx="439.94" cy="51.47" r="0.38"/><circle class="cls-1" cx="0.76" cy="275.71" r="0.76"/><circle class="cls-1" cx="66.47" cy="294.82" r="0.38"/><circle class="cls-1" cx="871.92" cy="211.53" r="1.14"/><circle class="cls-1" cx="806.39" cy="311.89" r="0.76"/><circle class="cls-1" cx="789.35" cy="245.61" r="0.38"/><ellipse class="cls-1" cx="742.64" cy="213.4" rx="1.12" ry="1.06"/><ellipse class="cls-1" cx="661.56" cy="245.32" rx="0.37" ry="0.35"/><circle class="cls-1" cx="975.58" cy="238.27" r="1.14"/><circle class="cls-1" cx="922.59" cy="130.76" r="0.76"/><circle class="cls-1" cx="988.31" cy="149.86" r="0.38"/><circle class="cls-1" cx="999.95" cy="14.59" r="1.5"/></g></g></svg>